<mxfile host="app.diagrams.net" modified="2024-02-21T14:15:39.415Z" agent="Mozilla/5.0 (X11; Linux x86_64) AppleWebKit/537.36 (KHTML, like Gecko) Chrome/121.0.0.0 Safari/537.36" etag="GtfTV1f0d18sOxqai71n" version="23.1.4" type="device">
  <diagram name="Page-1" id="mrLRq-gBbGAqhJcwb7oF">
    <mxGraphModel dx="2261" dy="776" grid="1" gridSize="10" guides="1" tooltips="1" connect="1" arrows="1" fold="1" page="1" pageScale="1" pageWidth="827" pageHeight="1169" math="0" shadow="0">
      <root>
        <mxCell id="0" />
        <mxCell id="1" parent="0" />
        <mxCell id="enksbB4cINpY5Lp8R2Yq-36" style="edgeStyle=orthogonalEdgeStyle;rounded=0;orthogonalLoop=1;jettySize=auto;html=1;entryX=0;entryY=0.5;entryDx=0;entryDy=0;startArrow=classic;startFill=1;" parent="1" source="enksbB4cINpY5Lp8R2Yq-1" target="enksbB4cINpY5Lp8R2Yq-8" edge="1">
          <mxGeometry relative="1" as="geometry" />
        </mxCell>
        <mxCell id="enksbB4cINpY5Lp8R2Yq-1" value="Reverse proxy (nginx)" style="whiteSpace=wrap;html=1;aspect=fixed;fillColor=#ffe6cc;strokeColor=#d79b00;" parent="1" vertex="1">
          <mxGeometry x="190" y="350" width="90" height="90" as="geometry" />
        </mxCell>
        <mxCell id="enksbB4cINpY5Lp8R2Yq-35" style="rounded=0;orthogonalLoop=1;jettySize=auto;html=1;entryX=0;entryY=0.5;entryDx=0;entryDy=0;startArrow=classic;startFill=1;" parent="1" source="xo1VzQMQgrcLEJfLTpk3-3" target="enksbB4cINpY5Lp8R2Yq-1" edge="1">
          <mxGeometry relative="1" as="geometry">
            <mxPoint x="120" y="395" as="sourcePoint" />
          </mxGeometry>
        </mxCell>
        <mxCell id="xo1VzQMQgrcLEJfLTpk3-4" style="edgeStyle=orthogonalEdgeStyle;rounded=0;orthogonalLoop=1;jettySize=auto;html=1;entryX=0;entryY=0.5;entryDx=0;entryDy=0;" edge="1" parent="1" source="enksbB4cINpY5Lp8R2Yq-2" target="xo1VzQMQgrcLEJfLTpk3-3">
          <mxGeometry relative="1" as="geometry" />
        </mxCell>
        <mxCell id="enksbB4cINpY5Lp8R2Yq-2" value="User" style="shape=umlActor;verticalLabelPosition=bottom;verticalAlign=top;html=1;outlineConnect=0;" parent="1" vertex="1">
          <mxGeometry x="-50" y="365" width="30" height="60" as="geometry" />
        </mxCell>
        <mxCell id="enksbB4cINpY5Lp8R2Yq-13" value="writes to" style="rounded=0;orthogonalLoop=1;jettySize=auto;html=1;exitX=0.433;exitY=-0.011;exitDx=0;exitDy=0;exitPerimeter=0;" parent="1" source="enksbB4cINpY5Lp8R2Yq-8" target="enksbB4cINpY5Lp8R2Yq-11" edge="1">
          <mxGeometry relative="1" as="geometry" />
        </mxCell>
        <mxCell id="enksbB4cINpY5Lp8R2Yq-17" style="rounded=0;orthogonalLoop=1;jettySize=auto;html=1;startArrow=classic;startFill=1;" parent="1" source="enksbB4cINpY5Lp8R2Yq-8" target="enksbB4cINpY5Lp8R2Yq-10" edge="1">
          <mxGeometry relative="1" as="geometry" />
        </mxCell>
        <mxCell id="enksbB4cINpY5Lp8R2Yq-37" style="edgeStyle=orthogonalEdgeStyle;rounded=0;orthogonalLoop=1;jettySize=auto;html=1;entryX=0;entryY=0.5;entryDx=0;entryDy=0;startArrow=classic;startFill=1;" parent="1" source="enksbB4cINpY5Lp8R2Yq-8" target="enksbB4cINpY5Lp8R2Yq-15" edge="1">
          <mxGeometry relative="1" as="geometry" />
        </mxCell>
        <mxCell id="enksbB4cINpY5Lp8R2Yq-8" value="Web backend (kotlin)" style="whiteSpace=wrap;html=1;aspect=fixed;fillColor=#e1d5e7;strokeColor=#9673a6;" parent="1" vertex="1">
          <mxGeometry x="340" y="350" width="90" height="90" as="geometry" />
        </mxCell>
        <mxCell id="enksbB4cINpY5Lp8R2Yq-10" value="Postgres DB" style="shape=cylinder3;whiteSpace=wrap;html=1;boundedLbl=1;backgroundOutline=1;size=15;" parent="1" vertex="1">
          <mxGeometry x="354" y="520" width="60" height="80" as="geometry" />
        </mxCell>
        <mxCell id="enksbB4cINpY5Lp8R2Yq-11" value="Input files volume" style="shape=cylinder3;whiteSpace=wrap;html=1;boundedLbl=1;backgroundOutline=1;size=15;" parent="1" vertex="1">
          <mxGeometry x="820" y="90" width="60" height="80" as="geometry" />
        </mxCell>
        <mxCell id="enksbB4cINpY5Lp8R2Yq-33" value="reads from" style="rounded=0;orthogonalLoop=1;jettySize=auto;html=1;entryX=0.25;entryY=0;entryDx=0;entryDy=0;exitX=1;exitY=0;exitDx=0;exitDy=52.5;exitPerimeter=0;" parent="1" source="enksbB4cINpY5Lp8R2Yq-11" target="enksbB4cINpY5Lp8R2Yq-23" edge="1">
          <mxGeometry relative="1" as="geometry" />
        </mxCell>
        <mxCell id="enksbB4cINpY5Lp8R2Yq-12" value="Model output volume" style="shape=cylinder3;whiteSpace=wrap;html=1;boundedLbl=1;backgroundOutline=1;size=15;" parent="1" vertex="1">
          <mxGeometry x="820" y="190" width="60" height="80" as="geometry" />
        </mxCell>
        <mxCell id="enksbB4cINpY5Lp8R2Yq-14" value="reads from" style="rounded=0;orthogonalLoop=1;jettySize=auto;html=1;entryX=0;entryY=1;entryDx=0;entryDy=-15;entryPerimeter=0;exitX=1;exitY=0;exitDx=0;exitDy=0;endArrow=none;endFill=0;startArrow=classic;startFill=1;" parent="1" source="enksbB4cINpY5Lp8R2Yq-8" target="enksbB4cINpY5Lp8R2Yq-12" edge="1">
          <mxGeometry relative="1" as="geometry">
            <mxPoint x="411" y="360" as="sourcePoint" />
            <mxPoint x="456" y="230" as="targetPoint" />
          </mxGeometry>
        </mxCell>
        <mxCell id="enksbB4cINpY5Lp8R2Yq-40" style="edgeStyle=orthogonalEdgeStyle;rounded=0;orthogonalLoop=1;jettySize=auto;html=1;entryX=0;entryY=0.5;entryDx=0;entryDy=0;" parent="1" source="enksbB4cINpY5Lp8R2Yq-15" target="enksbB4cINpY5Lp8R2Yq-16" edge="1">
          <mxGeometry relative="1" as="geometry">
            <Array as="points">
              <mxPoint x="605" y="390" />
              <mxPoint x="605" y="341" />
            </Array>
          </mxGeometry>
        </mxCell>
        <mxCell id="enksbB4cINpY5Lp8R2Yq-41" style="edgeStyle=orthogonalEdgeStyle;rounded=0;orthogonalLoop=1;jettySize=auto;html=1;entryX=0;entryY=0.5;entryDx=0;entryDy=0;startArrow=classic;startFill=1;" parent="1" source="enksbB4cINpY5Lp8R2Yq-15" target="enksbB4cINpY5Lp8R2Yq-38" edge="1">
          <mxGeometry relative="1" as="geometry">
            <Array as="points">
              <mxPoint x="600" y="390" />
              <mxPoint x="600" y="390" />
            </Array>
          </mxGeometry>
        </mxCell>
        <mxCell id="enksbB4cINpY5Lp8R2Yq-42" style="edgeStyle=orthogonalEdgeStyle;rounded=0;orthogonalLoop=1;jettySize=auto;html=1;entryX=0;entryY=0.5;entryDx=0;entryDy=0;startArrow=classic;startFill=1;" parent="1" source="enksbB4cINpY5Lp8R2Yq-15" target="enksbB4cINpY5Lp8R2Yq-39" edge="1">
          <mxGeometry relative="1" as="geometry">
            <Array as="points">
              <mxPoint x="605" y="390" />
              <mxPoint x="605" y="438" />
            </Array>
          </mxGeometry>
        </mxCell>
        <mxCell id="enksbB4cINpY5Lp8R2Yq-15" value="Load balancer (haproxy)" style="whiteSpace=wrap;html=1;aspect=fixed;fillColor=#dae8fc;strokeColor=#6c8ebf;" parent="1" vertex="1">
          <mxGeometry x="490" y="350" width="90" height="90" as="geometry" />
        </mxCell>
        <mxCell id="enksbB4cINpY5Lp8R2Yq-43" style="edgeStyle=orthogonalEdgeStyle;rounded=0;orthogonalLoop=1;jettySize=auto;html=1;" parent="1" source="enksbB4cINpY5Lp8R2Yq-16" target="enksbB4cINpY5Lp8R2Yq-18" edge="1">
          <mxGeometry relative="1" as="geometry">
            <Array as="points">
              <mxPoint x="770" y="340" />
              <mxPoint x="770" y="390" />
            </Array>
          </mxGeometry>
        </mxCell>
        <mxCell id="enksbB4cINpY5Lp8R2Yq-16" value="hintr API (R)" style="whiteSpace=wrap;html=1;fillColor=#d5e8d4;strokeColor=#82b366;" parent="1" vertex="1">
          <mxGeometry x="630" y="321" width="90" height="40" as="geometry" />
        </mxCell>
        <mxCell id="enksbB4cINpY5Lp8R2Yq-28" value="pulls jobs from" style="rounded=0;orthogonalLoop=1;jettySize=auto;html=1;entryX=0;entryY=0.404;entryDx=0;entryDy=0;entryPerimeter=0;" parent="1" source="enksbB4cINpY5Lp8R2Yq-18" target="enksbB4cINpY5Lp8R2Yq-23" edge="1">
          <mxGeometry relative="1" as="geometry" />
        </mxCell>
        <mxCell id="enksbB4cINpY5Lp8R2Yq-18" value="Queue (redis)" style="shape=cylinder3;whiteSpace=wrap;html=1;boundedLbl=1;backgroundOutline=1;size=15;" parent="1" vertex="1">
          <mxGeometry x="820" y="350" width="60" height="80" as="geometry" />
        </mxCell>
        <mxCell id="enksbB4cINpY5Lp8R2Yq-32" value="writes to" style="rounded=0;orthogonalLoop=1;jettySize=auto;html=1;entryX=1;entryY=0;entryDx=0;entryDy=52.5;entryPerimeter=0;exitX=0.007;exitY=0.283;exitDx=0;exitDy=0;exitPerimeter=0;" parent="1" source="enksbB4cINpY5Lp8R2Yq-23" target="enksbB4cINpY5Lp8R2Yq-12" edge="1">
          <mxGeometry relative="1" as="geometry">
            <mxPoint x="1030" y="309.9966666666667" as="sourcePoint" />
            <mxPoint x="880" y="223.32999999999998" as="targetPoint" />
          </mxGeometry>
        </mxCell>
        <mxCell id="enksbB4cINpY5Lp8R2Yq-23" value="&lt;div style=&quot;text-align: center;&quot;&gt;&lt;span style=&quot;background-color: initial;&quot;&gt;&amp;nbsp;Worker pool&lt;/span&gt;&lt;/div&gt;&lt;div style=&quot;text-align: center;&quot;&gt;&lt;span style=&quot;background-color: initial;&quot;&gt;&lt;br&gt;&lt;/span&gt;&lt;/div&gt;&lt;div style=&quot;text-align: center;&quot;&gt;&lt;span style=&quot;background-color: initial;&quot;&gt;&lt;br&gt;&lt;/span&gt;&lt;/div&gt;&lt;div style=&quot;text-align: center;&quot;&gt;&lt;span style=&quot;background-color: initial;&quot;&gt;&lt;br&gt;&lt;/span&gt;&lt;/div&gt;&lt;div style=&quot;text-align: center;&quot;&gt;&lt;span style=&quot;background-color: initial;&quot;&gt;&lt;br&gt;&lt;/span&gt;&lt;/div&gt;&lt;div style=&quot;text-align: center;&quot;&gt;&lt;span style=&quot;background-color: initial;&quot;&gt;&lt;br&gt;&lt;/span&gt;&lt;/div&gt;&lt;div style=&quot;text-align: center;&quot;&gt;&lt;span style=&quot;background-color: initial;&quot;&gt;&lt;br&gt;&lt;/span&gt;&lt;/div&gt;&lt;div style=&quot;text-align: center;&quot;&gt;&lt;span style=&quot;background-color: initial;&quot;&gt;&lt;br&gt;&lt;/span&gt;&lt;/div&gt;&lt;div style=&quot;text-align: center;&quot;&gt;&lt;span style=&quot;background-color: initial;&quot;&gt;&lt;br&gt;&lt;/span&gt;&lt;/div&gt;&lt;div style=&quot;text-align: center;&quot;&gt;&lt;span style=&quot;background-color: initial;&quot;&gt;&lt;br&gt;&lt;/span&gt;&lt;/div&gt;&lt;div style=&quot;text-align: center;&quot;&gt;&lt;span style=&quot;background-color: initial;&quot;&gt;&lt;br&gt;&lt;/span&gt;&lt;/div&gt;&lt;div style=&quot;text-align: center;&quot;&gt;&lt;span style=&quot;background-color: initial;&quot;&gt;&lt;br&gt;&lt;/span&gt;&lt;/div&gt;&lt;div style=&quot;text-align: center;&quot;&gt;&lt;span style=&quot;background-color: initial;&quot;&gt;&lt;br&gt;&lt;/span&gt;&lt;/div&gt;&lt;div style=&quot;text-align: center;&quot;&gt;&lt;span style=&quot;background-color: initial;&quot;&gt;&lt;br&gt;&lt;/span&gt;&lt;/div&gt;&lt;div style=&quot;text-align: center;&quot;&gt;&lt;span style=&quot;background-color: initial;&quot;&gt;&lt;br&gt;&lt;/span&gt;&lt;/div&gt;&lt;div style=&quot;text-align: center;&quot;&gt;&lt;span style=&quot;background-color: initial;&quot;&gt;&lt;br&gt;&lt;/span&gt;&lt;/div&gt;" style="rounded=0;whiteSpace=wrap;html=1;align=left;" parent="1" vertex="1">
          <mxGeometry x="1030" y="270" width="150" height="240" as="geometry" />
        </mxCell>
        <mxCell id="enksbB4cINpY5Lp8R2Yq-34" value="saves job result" style="rounded=0;orthogonalLoop=1;jettySize=auto;html=1;entryX=1;entryY=1;entryDx=0;entryDy=-15;entryPerimeter=0;" parent="1" source="enksbB4cINpY5Lp8R2Yq-23" target="enksbB4cINpY5Lp8R2Yq-18" edge="1">
          <mxGeometry relative="1" as="geometry">
            <mxPoint x="880" y="460" as="sourcePoint" />
            <mxPoint x="1020" y="464" as="targetPoint" />
          </mxGeometry>
        </mxCell>
        <mxCell id="enksbB4cINpY5Lp8R2Yq-38" value="hintr API (R)" style="whiteSpace=wrap;html=1;fillColor=#d5e8d4;strokeColor=#82b366;" parent="1" vertex="1">
          <mxGeometry x="630" y="370" width="90" height="40" as="geometry" />
        </mxCell>
        <mxCell id="enksbB4cINpY5Lp8R2Yq-44" style="edgeStyle=orthogonalEdgeStyle;rounded=0;orthogonalLoop=1;jettySize=auto;html=1;entryX=0;entryY=0.5;entryDx=0;entryDy=0;entryPerimeter=0;" parent="1" source="enksbB4cINpY5Lp8R2Yq-39" target="enksbB4cINpY5Lp8R2Yq-18" edge="1">
          <mxGeometry relative="1" as="geometry" />
        </mxCell>
        <mxCell id="enksbB4cINpY5Lp8R2Yq-39" value="hintr API (R)" style="whiteSpace=wrap;html=1;fillColor=#d5e8d4;strokeColor=#82b366;" parent="1" vertex="1">
          <mxGeometry x="630" y="418" width="90" height="40" as="geometry" />
        </mxCell>
        <mxCell id="enksbB4cINpY5Lp8R2Yq-19" value="pushes long&lt;br&gt;running jobs" style="rounded=0;orthogonalLoop=1;jettySize=auto;html=1;entryX=0;entryY=0.5;entryDx=0;entryDy=0;entryPerimeter=0;exitX=1;exitY=0.5;exitDx=0;exitDy=0;" parent="1" source="enksbB4cINpY5Lp8R2Yq-38" target="enksbB4cINpY5Lp8R2Yq-18" edge="1">
          <mxGeometry relative="1" as="geometry">
            <Array as="points">
              <mxPoint x="770" y="390" />
            </Array>
          </mxGeometry>
        </mxCell>
        <mxCell id="xo1VzQMQgrcLEJfLTpk3-3" value="Front end&lt;br&gt;(VueJS)" style="whiteSpace=wrap;html=1;aspect=fixed;fillColor=#f8cecc;strokeColor=#b85450;" vertex="1" parent="1">
          <mxGeometry x="40" y="350" width="90" height="90" as="geometry" />
        </mxCell>
        <mxCell id="xo1VzQMQgrcLEJfLTpk3-5" value="hintr worker (R)" style="whiteSpace=wrap;html=1;fillColor=#fff2cc;strokeColor=#d6b656;" vertex="1" parent="1">
          <mxGeometry x="1060" y="310" width="90" height="40" as="geometry" />
        </mxCell>
        <mxCell id="xo1VzQMQgrcLEJfLTpk3-6" value="hintr worker (R)" style="whiteSpace=wrap;html=1;fillColor=#fff2cc;strokeColor=#d6b656;" vertex="1" parent="1">
          <mxGeometry x="1060" y="361" width="90" height="40" as="geometry" />
        </mxCell>
        <mxCell id="xo1VzQMQgrcLEJfLTpk3-8" value="hintr worker (R)" style="whiteSpace=wrap;html=1;fillColor=#fff2cc;strokeColor=#d6b656;" vertex="1" parent="1">
          <mxGeometry x="1060" y="454" width="90" height="40" as="geometry" />
        </mxCell>
        <mxCell id="xo1VzQMQgrcLEJfLTpk3-9" value="&lt;font style=&quot;font-size: 20px;&quot;&gt;...&lt;/font&gt;" style="text;html=1;align=center;verticalAlign=middle;whiteSpace=wrap;rounded=0;rotation=90;" vertex="1" parent="1">
          <mxGeometry x="1082" y="413" width="60" height="30" as="geometry" />
        </mxCell>
      </root>
    </mxGraphModel>
  </diagram>
</mxfile>
